# xmcd CD database file
#
# Track frame offsets:
#	150
#	19282
#	34123
#	50745
#	66264
#	80756
#	97811
#	112660
#	126315
#	141610
#	155035
#	170017
#	183280
#	197907
#
# Disc length: 2890 seconds
#
# Revision: 0
# Processed by: cddbd v1.5.1PL2 Copyright (c) Steve Scherf et al.
# Submitted via: CDex 1.50
#
DISCID=cc0b480e
DTITLE=Mr. Music Country - Mr. Music Country 6-06
DYEAR=2006
DGENRE=Country
TTITLE0=Billy Joe Shaver with Big and Rich - Live Forever
TTITLE1=Dusty Drake - Lakeside Hideaway
TTITLE2=Amber Digby - Somebody Somewhere
TTITLE3=Randy Archer - I'm Just A Place To Fall
TTITLE4=Inger Nordström 'n' her Rhinestone Band - No Train At 6:18
TTITLE5=Mike Siler - One Lonely Fool
TTITLE6=Kathy Chiavola with Emmylou Harris - Will You Love Me Still
TTITLE7=Frankie Miller - Old Side Of Town
TTITLE8=Joni Harms - She Still's Prayin' For Me
TTITLE9=Ed Burleson - If You Gonna Go (Just Go)
TTITLE10=Becky Hobbs - Another Man In Black
TTITLE11=Bobby Flores - Too Many Rivers
TTITLE12=Dixie 'n' Dave - Come On And Dance With Me
TTITLE13=George Jones - Tramp On The Street
EXTD=YEAR: 2006
EXTT0=
EXTT1=
EXTT2=
EXTT3=
EXTT4=
EXTT5=
EXTT6=
EXTT7=
EXTT8=
EXTT9=
EXTT10=
EXTT11=
EXTT12=
EXTT13=
PLAYORDER=
